HIERARCHY
ROOT Model_Hips
{
	OFFSET 0.000000 96.915077 0.000000
	CHANNELS 6 Xposition Yposition Zposition Xrotation Yrotation Zrotation
	JOINT Model_Spine
	{
		OFFSET 0.000000 11.137703 -1.289900
		CHANNELS 3 Xrotation Yrotation Zrotation
		JOINT Model_Spine1
		{
			OFFSET 0.000000 12.993942 -1.504922
			CHANNELS 3 Xrotation Yrotation Zrotation
			JOINT Model_Spine2
			{
				OFFSET 0.000000 14.850220 -1.719911
				CHANNELS 3 Xrotation Yrotation Zrotation
				JOINT Model_Neck
				{
					OFFSET 0.000000 16.706543 -1.934903
					CHANNELS 3 Xrotation Yrotation Zrotation
					JOINT Model_Head
					{
						OFFSET 0.000000 10.471298 2.002100
						CHANNELS 3 Xrotation Yrotation Zrotation
						JOINT Model_HeadTop_End
						{
							OFFSET 0.000000 20.842606 3.985100
							CHANNELS 3 Xrotation Yrotation Zrotation
							End Site
							{
								OFFSET 0.000000 21.220154 0.000000
							}
						}
					}
				}
				JOINT Model_LeftShoulder
				{
					OFFSET 7.008500 14.768600 -1.919946
					CHANNELS 3 Xrotation Yrotation Zrotation
					JOINT Model_LeftArm
					{
						OFFSET 14.126271 -3.718048 0.029937
						CHANNELS 3 Xrotation Yrotation Zrotation
						JOINT Model_LeftForeArm
						{
							OFFSET 28.282801 0.000000 0.000000
							CHANNELS 3 Xrotation Yrotation Zrotation
							JOINT Model_LeftHand
							{
								OFFSET 26.204689 0.000000 0.000000
								CHANNELS 3 Xrotation Yrotation Zrotation
								End Site
								{
									OFFSET 26.204704 0.000000 0.000000
								}
							}
						}
					}
				}
				JOINT Model_RightShoulder
				{
					OFFSET -7.008500 14.768555 -1.949840
					CHANNELS 3 Xrotation Yrotation Zrotation
					JOINT Model_RightArm
					{
						OFFSET -14.126281 -3.718018 -0.029932
						CHANNELS 3 Xrotation Yrotation Zrotation
						JOINT Model_RightForeArm
						{
							OFFSET -28.283798 0.000000 -0.000001
							CHANNELS 3 Xrotation Yrotation Zrotation
							JOINT Model_RightHand
							{
								OFFSET -26.204193 0.000000 -0.000001
								CHANNELS 3 Xrotation Yrotation Zrotation
								End Site
								{
									OFFSET -26.204208 0.000000 -0.000001
								}
							}
						}
					}
				}
			}
		}
	}
	JOINT Model_LeftUpLeg
	{
		OFFSET 8.327700 -6.193199 -0.402800
		CHANNELS 3 Xrotation Yrotation Zrotation
		JOINT Model_LeftLeg
		{
			OFFSET 0.735802 -42.108742 -0.610721
			CHANNELS 3 Xrotation Yrotation Zrotation
			JOINT Model_LeftFoot
			{
				OFFSET -0.735806 -36.833748 -0.172876
				CHANNELS 3 Xrotation Yrotation Zrotation
				JOINT Model_LeftToeBase
				{
					OFFSET -0.565857 -11.977769 16.297714
					CHANNELS 3 Xrotation Yrotation Zrotation
					JOINT Model_LeftToe_End
					{
						OFFSET -0.111712 -0.312793 7.857784
						CHANNELS 3 Xrotation Yrotation Zrotation
						End Site
						{
							OFFSET -0.111712 -0.312793 7.857784
						}
					}
				}
			}
		}
	}
	JOINT Model_RightUpLeg
	{
		OFFSET -8.327700 -6.193199 -0.516500
		CHANNELS 3 Xrotation Yrotation Zrotation
		JOINT Model_RightLeg
		{
			OFFSET -0.735785 -42.108738 -0.434061
			CHANNELS 3 Xrotation Yrotation Zrotation
			JOINT Model_RightFoot
			{
				OFFSET 0.735776 -36.833748 -0.021630
				CHANNELS 3 Xrotation Yrotation Zrotation
				JOINT Model_RightToeBase
				{
					OFFSET 0.565817 -11.977745 15.903093
					CHANNELS 3 Xrotation Yrotation Zrotation
					JOINT Model_RightToe_End
					{
						OFFSET 0.111702 -0.312791 7.811342
						CHANNELS 3 Xrotation Yrotation Zrotation
						End Site
						{
							OFFSET 0.111702 -0.312791 7.811342
						}
					}
				}
			}
		}
	}
}
MOTION
Frames: 14
Frame Time: 0.016667
-1.316540 86.665291 0.930015 2.345364 -0.204079 14.912571 11.178955 -6.329687 -0.658190 0.826042 -1.684459 -0.081302 0.831197 -1.679007 -0.069352 0.264767 -5.325169 -0.350133 0.286385 -5.329481 -0.257666 0.000001 -0.000001 -0.000000 0.390031 -7.113667 -15.858743 13.818827 10.033176 -57.626627 0.000011 -76.179067 0.000024 0.000001 0.000001 -0.000001 0.598570 3.265809 15.797481 17.641994 3.568249 46.861559 0.000006 52.766428 -0.000004 0.000001 0.000001 -0.000000 -29.590149 11.352189 9.674176 79.814251 9.408934 -0.613518 -0.942563 11.916541 -8.781563 -3.901519 0.070121 -1.841340 -0.000001 0.000000 -0.000002 -20.276170 -3.255129 2.594835 61.039317 -6.346640 -2.621086 -36.455137 6.249545 -16.610216 -14.779870 -0.000001 0.000001 0.000001 0.000000 -0.000000 
-3.752415 85.892456 -2.462910 1.929926 0.994793 14.808446 11.141423 -7.332849 -0.215346 0.811643 -1.978676 -0.054773 0.818099 -1.972250 -0.040922 0.177488 -5.122915 -0.491211 0.193842 -5.130180 -0.401746 -0.000000 -0.000002 0.000000 0.406897 -7.064391 -15.407636 13.192107 9.313289 -56.804395 -0.000023 -83.556054 -0.000005 -0.000001 -0.000001 0.000001 0.549664 4.295141 14.970366 22.985893 -0.808879 48.136523 0.000003 55.829635 -0.000011 0.000001 0.000000 -0.000000 -26.034103 13.256711 9.805807 83.388468 9.356554 -1.079315 -2.155030 10.351035 -8.555487 -2.178630 0.002222 -0.328498 0.000001 -0.000001 0.000003 -22.760970 -4.070272 4.461947 61.477255 -8.648345 -1.445681 -35.606196 6.909605 -18.737029 -14.013422 0.000002 0.000001 0.000001 -0.000000 -0.000000 
-6.321850 85.517006 -5.644115 1.256426 2.650205 14.840116 10.939809 -8.218213 0.087057 0.821546 -2.236305 -0.034178 0.829441 -2.229116 -0.019280 0.148239 -4.962227 -0.669504 0.159256 -4.972532 -0.585445 0.000001 -0.000002 0.000001 0.399771 -7.312327 -15.240876 12.360571 8.428576 -54.642873 0.000411 -91.191693 0.000160 0.000002 0.000001 -0.000000 0.555197 4.395391 13.825590 29.113640 -4.983795 50.238439 -0.000007 59.655760 0.000022 -0.000003 -0.000000 0.000000 -21.382715 14.784660 9.318838 84.847356 9.091831 -1.527746 -2.464008 8.687988 -10.095377 -2.684670 0.000019 0.000001 0.000001 0.000002 -0.000001 -24.357392 -4.991714 5.849917 60.270347 -10.173200 -0.300784 -33.364583 7.016551 -20.338889 -13.056440 -0.000002 0.000002 0.000000 -0.000000 -0.000000 
-9.040239 85.465302 -8.743215 0.476696 4.736339 14.964700 10.568335 -8.924367 0.172125 0.763537 -2.434220 -0.024124 0.772520 -2.426686 -0.009106 0.178441 -4.857525 -0.889828 0.185873 -4.871250 -0.809669 -0.000000 -0.000001 -0.000000 0.359082 -7.988448 -15.409458 10.890583 7.560556 -50.992898 0.000000 -98.524973 -0.000028 -0.000000 -0.000002 0.000002 0.592002 3.396745 12.264338 36.037881 -8.023334 53.107036 0.000027 63.675381 -0.000022 0.000001 -0.000000 -0.000000 -16.426335 16.014463 8.483228 84.522976 8.823429 -2.111498 -1.914346 5.789492 -10.703535 -4.325934 0.000013 0.000015 -0.000002 0.000000 0.000003 -25.383351 -5.831426 6.905903 57.617563 -10.492263 0.798471 -29.884332 5.985818 -22.076577 -11.817540 0.000002 0.000005 0.000001 0.000000 0.000000 
-11.877089 85.671288 -11.871111 -0.342571 7.244879 15.284097 10.074843 -9.732326 -0.029968 0.602540 -2.642651 -0.058642 0.613417 -2.634177 -0.047094 0.275294 -4.783739 -1.140791 0.280964 -4.801518 -1.061762 -0.000000 -0.000002 0.000001 0.284089 -9.102187 -15.744563 8.699766 6.994150 -46.319806 -0.000003 -105.190207 0.000012 -0.000002 0.000001 -0.000001 0.602834 1.651288 10.330898 43.325058 -9.338735 56.215954 0.000002 67.390874 -0.000002 0.000001 0.000000 -0.000000 -11.604166 16.991364 7.261567 82.758561 8.778475 -2.766796 -0.413647 2.311282 -8.624342 -6.311346 0.000006 -0.000011 0.000002 -0.000001 0.000002 -26.092178 -6.650708 7.473997 53.782757 -10.377120 1.889461 -25.364158 4.346431 -23.864742 -10.627040 0.000001 -0.000000 0.000000 0.000000 0.000000 
-14.804214 86.123848 -15.060164 -1.344283 10.117429 16.009888 9.606928 -11.035179 -0.605607 0.405404 -2.962717 -0.191928 0.422070 -2.950259 -0.185846 0.439464 -4.698247 -1.371043 0.443650 -4.719952 -1.292393 -0.000000 -0.000000 -0.000000 0.201116 -10.389525 -15.922945 5.880010 6.942449 -41.560994 0.000021 -110.941615 0.000013 -0.000002 -0.000001 0.000000 0.551424 -0.154747 8.293700 50.123709 -9.173934 58.948822 0.000058 70.375585 -0.000077 -0.000001 -0.000000 0.000000 -6.829095 17.501755 5.452961 79.754691 8.478689 -3.253557 2.131527 0.699079 -4.695329 -8.103091 0.000011 0.000001 0.000001 0.000004 -0.000001 -26.431908 -7.568038 7.219711 48.896129 -10.224471 3.002044 -19.710335 2.504434 -25.332120 -9.814564 -0.000002 0.000001 0.000000 0.000000 0.000000 
-17.834105 86.801689 -18.325237 -2.438703 13.009454 17.033443 9.186253 -12.771539 -1.456060 0.252832 -3.385853 -0.412556 0.280694 -3.366314 -0.411427 0.640311 -4.582347 -1.518064 0.642096 -4.606263 -1.442205 -0.000001 -0.000000 0.000000 0.152252 -11.474338 -15.727626 2.522351 7.351363 -37.600342 0.000018 -115.607358 0.000009 -0.000002 0.000000 -0.000000 0.466181 -1.444981 6.589445 55.787476 -8.541539 61.048627 0.000034 72.564531 -0.000049 -0.000002 -0.000000 0.000000 -2.331136 17.370018 3.281559 76.031514 8.536306 -3.454796 4.736435 0.763404 -1.108594 -9.398514 0.000017 -0.000008 -0.000002 0.000001 0.000000 -25.609026 -8.398060 6.788502 41.636061 -9.826639 4.054202 -13.310352 0.839023 -28.389572 -9.251251 -0.000001 -0.000001 0.000001 -0.000000 0.000000 
-20.982676 87.636574 -21.730112 -3.145941 15.423368 17.817913 8.680715 -14.382548 -2.244077 0.165396 -3.785417 -0.627248 0.206694 -3.759211 -0.628834 0.813478 -4.459612 -1.564292 0.811895 -4.483346 -1.494517 0.000002 -0.000001 -0.000000 0.156536 -12.114631 -15.211120 -1.213402 7.806901 -34.862570 0.000021 -119.049705 0.000014 0.000001 0.000001 0.000003 0.403499 -2.085533 5.575493 60.144160 -8.417990 62.636345 0.000037 74.134914 -0.000039 -0.000002 -0.000000 -0.000000 1.168605 16.783370 1.285047 72.248327 8.508986 -3.567280 6.001386 0.971440 0.954980 -10.348911 0.000006 -0.000001 0.000001 -0.000001 0.000002 -23.751155 -8.586465 6.795132 31.024676 -8.762405 4.699384 -4.394986 -2.037527 -30.253415 -8.846316 0.000000 -0.000006 0.000000 -0.000000 0.000000 
-24.220745 88.498878 -25.325871 -3.056247 17.171570 17.889495 7.996081 -15.413807 -2.633183 0.129771 -4.061236 -0.742827 0.181173 -4.032357 -0.744412 0.897350 -4.369470 -1.540552 0.891838 -4.391364 -1.478767 0.000000 0.000000 -0.000000 0.195377 -12.256976 -14.635729 -4.968930 7.897596 -33.341821 -0.000003 -121.276989 -0.000006 -0.000003 -0.000000 0.000000 0.389018 -2.300922 5.382160 63.260741 -9.149213 63.861053 0.000027 75.209166 -0.000041 0.000000 -0.000000 0.000000 3.273517 16.044150 -0.238603 68.528504 6.182121 -3.838723 5.592984 1.211618 1.687063 -11.439733 0.000014 -0.000015 -0.000001 -0.000000 -0.000004 -20.365437 -7.806281 8.139445 15.658648 -7.093346 3.927384 6.115518 -6.053598 -28.631188 -7.647597 -0.000001 0.000007 0.000000 -0.000000 0.000000 
-27.492016 89.260544 -29.109108 -2.148387 18.422234 17.180306 7.122924 -15.820781 -2.498639 0.134557 -4.205006 -0.724315 0.189711 -4.178250 -0.723396 0.877996 -4.330221 -1.493652 0.867767 -4.349578 -1.440845 -0.000000 -0.000001 0.000001 0.233167 -11.972970 -14.319356 -8.232418 7.607962 -32.832856 0.000016 -122.485605 0.000006 -0.000002 0.000001 -0.000002 0.418286 -2.335320 5.963814 65.246789 -10.561003 64.752113 0.000045 75.822654 -0.000057 -0.000001 -0.000000 0.000000 4.207272 15.229645 -1.313657 64.518165 1.152736 -4.257581 4.536580 1.464768 1.465034 -12.700973 0.000006 0.000001 -0.000001 -0.000001 -0.000002 -21.597775 -7.020546 8.003141 9.093049 -6.765918 3.865747 12.360300 -7.986794 -17.013970 -6.512602 -0.000004 -0.000004 0.000000 0.000000 0.000000 
-30.606142 89.589188 -32.942135 -0.713782 19.399865 15.928394 5.890879 -15.764025 -1.763772 0.283419 -4.274317 -0.714780 0.326833 -4.252544 -0.718047 0.794581 -4.327587 -1.453896 0.778800 -4.344168 -1.411002 -0.000000 -0.000001 0.000000 0.247685 -11.381826 -14.454465 -10.921897 7.275904 -32.974869 0.000022 -123.139336 0.000020 0.000000 0.000002 -0.000001 0.478957 -2.263413 7.158251 66.645434 -12.488922 65.342070 0.000096 76.617613 -0.000060 0.000001 -0.000000 -0.000000 4.406604 14.221727 -2.152699 60.522272 -4.747866 -4.539041 3.841353 1.726684 0.417256 -14.302536 0.005729 -0.476252 -0.000002 -0.000001 0.000001 -27.024717 -6.752687 6.986942 11.813207 -7.665602 3.580210 14.777688 -6.382114 -2.479208 -3.125203 0.117161 -2.641876 -0.000001 0.000000 -0.000001 
-33.853035 89.897781 -36.897781 0.805328 20.173942 14.467213 4.956575 -15.511805 -0.970084 0.390883 -4.263344 -0.552110 0.425372 -4.247103 -0.553650 0.694355 -4.337982 -1.425441 0.673695 -4.351829 -1.391861 -0.000000 -0.000001 -0.000000 0.240744 -10.634648 -15.008190 -11.801973 7.316559 -33.685516 0.000002 -122.924964 -0.000009 -0.000001 -0.000000 0.000002 0.550087 -2.116290 8.620485 66.402805 -13.873216 65.522319 -0.000025 76.364035 0.000028 0.000000 0.000000 0.000000 4.126947 12.906314 -2.922246 56.312714 -8.766593 -4.340881 4.990880 1.907703 -1.131025 -18.520953 0.236779 -3.377038 0.000001 0.000002 -0.000002 -29.889379 -6.097559 6.743436 11.277743 -8.862189 3.607315 16.488133 -2.355441 4.414481 3.151763 0.000004 -0.000009 0.000002 0.000000 0.000002 
-37.376144 90.261345 -41.092838 2.012679 20.713860 13.127094 4.957243 -15.124402 -0.501805 0.308599 -4.149077 -0.192054 0.346093 -4.135948 -0.176799 0.599882 -4.354768 -1.411119 0.577695 -4.366518 -1.383312 0.000001 -0.000000 -0.000000 0.220027 -9.980869 -15.790392 -10.857407 7.872678 -34.741156 0.000031 -121.679342 0.000018 -0.000002 0.000001 0.000002 0.606610 -2.029839 9.862470 64.104966 -14.024706 65.291219 -0.000039 74.655621 0.000031 -0.000000 0.000000 0.000000 3.409375 11.336912 -3.661846 52.533553 -9.451585 -3.553646 7.480828 1.919619 -2.855375 -30.621872 0.571978 -2.125189 0.000000 -0.000003 0.000001 -31.807009 -5.271392 7.464334 11.438514 -7.141719 3.516848 15.234213 -0.342228 3.966065 1.369455 -0.000000 -0.000013 -0.000000 -0.000002 -0.000000 
-40.722855 89.947670 -45.237541 2.716452 21.054203 12.124779 5.127717 -14.454304 -0.083327 0.395033 -3.972505 -0.014546 0.422260 -3.961761 0.004897 0.541249 -4.388788 -1.420108 0.521323 -4.399388 -1.393955 0.000000 0.000001 -0.000000 0.186687 -9.672363 -16.553172 -9.651680 8.709301 -35.733060 -0.000012 -120.019838 -0.000023 -0.000004 0.000002 0.000000 0.639342 -2.102342 10.596829 61.335160 -13.506206 65.097461 -0.000009 73.176488 0.000012 0.000000 0.000000 0.000000 2.439010 9.715555 -4.375055 50.573480 -7.532339 -2.391472 8.366138 1.921749 -4.703336 -43.611396 0.887045 -1.741682 -0.000000 -0.000001 0.000001 -37.422371 -4.906019 7.660598 22.150840 -3.467863 2.976031 9.716619 -0.689872 4.192447 -0.339622 0.000006 0.000006 -0.000001 0.000000 0.000001 
